<?xml version="1.0" encoding="UTF-8" standalone="no"?>
<!-- Created with Inkscape (http://www.inkscape.org/) -->

<svg
   xmlns:dc="http://purl.org/dc/elements/1.1/"
   xmlns:cc="http://creativecommons.org/ns#"
   xmlns:rdf="http://www.w3.org/1999/02/22-rdf-syntax-ns#"
   xmlns:svg="http://www.w3.org/2000/svg"
   xmlns="http://www.w3.org/2000/svg"
   xmlns:sodipodi="http://sodipodi.sourceforge.net/DTD/sodipodi-0.dtd"
   xmlns:inkscape="http://www.inkscape.org/namespaces/inkscape"
   id="svg2"
   version="1.1"
   inkscape:version="0.48.4 r9939"
   width="55"
   height="55"
   sodipodi:docname="karumbeoff.svg">
  <metadata
     id="metadata8">
    <rdf:RDF>
      <cc:Work
         rdf:about="">
        <dc:format>image/svg+xml</dc:format>
        <dc:type
           rdf:resource="http://purl.org/dc/dcmitype/StillImage" />
        <dc:title></dc:title>
      </cc:Work>
    </rdf:RDF>
  </metadata>
  <defs
     id="defs6" />
  <sodipodi:namedview
     pagecolor="#ffffff"
     bordercolor="#666666"
     borderopacity="1"
     objecttolerance="10"
     gridtolerance="10"
     guidetolerance="10"
     inkscape:pageopacity="0"
     inkscape:pageshadow="2"
     inkscape:window-width="1600"
     inkscape:window-height="843"
     id="namedview4"
     showgrid="false"
     inkscape:zoom="11.893252"
     inkscape:cx="36.493313"
     inkscape:cy="30.601135"
     inkscape:window-x="-2"
     inkscape:window-y="-3"
     inkscape:window-maximized="1"
     inkscape:current-layer="svg2" />
  <rect
     width="45"
     height="45"
     x="5"
     y="5"
     id="rect2990"
     style="fill:#282828;fill-opacity:1;stroke:none" />
  <path
     style="fill:#ffffff"
     d="m 27.900687,49.924811 c -1.490374,-0.287787 -3.149943,-0.79457 -3.846834,-1.17471 -0.09918,-0.0541 -0.383182,-0.182601 -0.631122,-0.28556 -0.24794,-0.102959 -0.450801,-0.224181 -0.450801,-0.26938 0,-0.0452 -0.05771,-0.08218 -0.128234,-0.08218 -0.25166,0 -1.482707,-0.898181 -2.506032,-1.828418 -0.713008,-0.648147 -2.007963,-2.155611 -2.217408,-2.581294 -0.07276,-0.147887 -0.160445,-0.293085 -0.19485,-0.322662 -0.07024,-0.06039 -0.567956,-0.985795 -0.751998,-1.398202 -0.066,-0.147886 -0.16494,-0.348859 -0.219874,-0.446608 -0.260001,-0.462637 -0.713564,-2.13065 -0.713564,-2.624189 0,-0.648721 0.291899,-1.020505 0.967793,-1.232648 0.363405,-0.114062 0.484773,-0.107162 0.816757,0.04643 0.401736,0.185869 0.858906,0.738663 0.859699,1.039518 4.81e-4,0.171361 0.401917,1.364316 0.594149,1.765515 0.05669,0.118309 0.193227,0.408705 0.303422,0.645324 0.568775,1.221317 1.424834,2.360039 2.466111,3.280395 0.792153,0.700164 1.602144,1.306742 1.852709,1.38744 0.07346,0.02366 0.160611,0.07349 0.19367,0.110731 0.127772,0.143946 1.901375,0.871134 2.644698,1.084344 3.207665,0.920064 6.4143,0.640314 10.07893,-0.879296 0.551542,-0.228707 1.237491,-0.560296 1.52433,-0.736863 0.286837,-0.176568 0.552818,-0.321032 0.591065,-0.321032 0.09169,0 0.832349,-0.485239 1.5596,-1.021763 0.910204,-0.671494 2.595122,-2.238046 2.595122,-2.41281 0,-0.05323 0.04681,-0.112914 0.104023,-0.132633 0.288188,-0.09932 1.975078,-2.748122 2.35169,-3.692686 0.117931,-0.295773 0.260242,-0.634568 0.316249,-0.752877 0.238037,-0.502826 0.95466,-3.083862 0.95466,-3.438367 0,-0.03272 -0.284006,0.239484 -0.631122,0.604891 -0.716543,0.754301 -1.080507,0.966122 -1.99865,1.163185 -1.016026,0.218073 -1.789412,0.0077 -2.678368,-0.728682 -0.386397,-0.320062 -0.70254,-0.639923 -0.70254,-0.710802 0,-0.08081 -0.414703,-0.180761 -1.111975,-0.268009 -0.611587,-0.07653 -1.409504,-0.202237 -1.77315,-0.279358 -0.363647,-0.07712 -0.94518,-0.193302 -1.292296,-0.258177 -1.435941,-0.268373 -1.917419,-0.369373 -2.374218,-0.498038 -0.264471,-0.07449 -0.724288,-0.195824 -1.021816,-0.269625 -0.781887,-0.193943 -1.450444,-0.386473 -1.86331,-0.536592 -0.198353,-0.07212 -0.468833,-0.168495 -0.601068,-0.214163 -0.132236,-0.04567 -0.552959,-0.209038 -0.934942,-0.363047 C 29.64921,31.137907 29.318871,31.0119 29.297105,31.0119 c -0.02176,0 -0.07461,0.447694 -0.117429,0.994874 -0.13626,1.741131 -0.348242,2.914931 -0.581313,3.218875 -0.286053,0.373037 -0.909241,0.564011 -1.350589,0.413882 -0.701868,-0.238747 -0.961619,-0.757284 -0.802025,-1.601062 0.507168,-2.681406 0.880561,-8.841148 0.724602,-11.953546 -0.04891,-0.976052 -0.09393,-2.674969 -0.100042,-3.775372 -0.01063,-1.913218 8.41e-4,-2.016716 0.263231,-2.366187 0.459234,-0.61174 1.490149,-0.557822 1.913462,0.100077 0.148364,0.230584 0.205815,0.945971 0.290835,3.621518 0.05827,1.833795 0.09952,3.864353 0.09167,4.512353 l -0.01428,1.17818 0.254706,-0.276158 c 0.14009,-0.151885 0.470834,-0.51267 0.73499,-0.801741 0.264156,-0.289071 0.91826,-0.985377 1.453561,-1.547347 0.535302,-0.561969 1.07652,-1.135513 1.202707,-1.274543 0.126187,-0.139031 0.36467,-0.388806 0.529963,-0.55506 0.165294,-0.166253 0.447914,-0.463894 0.628044,-0.661427 1.350386,-1.480845 1.728819,-1.822009 2.144705,-1.933489 0.84698,-0.227038 1.554941,0.316905 1.554941,1.194698 0,0.199408 -0.261399,0.564831 -0.854059,1.193933 -1.713778,1.819154 -1.852832,1.965951 -1.970961,2.080717 -0.06612,0.06424 -0.335481,0.358722 -0.598586,0.654416 -0.263106,0.295694 -0.533587,0.589551 -0.601069,0.653014 -0.06748,0.06346 -0.339079,0.349331 -0.603548,0.635261 -0.26447,0.28593 -0.827455,0.88693 -1.251078,1.335554 -0.423623,0.448625 -1.072489,1.179142 -1.441928,1.623372 -0.369438,0.444229 -0.72452,0.841358 -0.789072,0.882508 -0.136029,0.08671 -0.154836,0.07212 0.500314,0.388183 0.649913,0.313534 1.872574,0.725911 3.162084,1.066501 0.561998,0.148436 1.211152,0.33229 1.442563,0.408563 0.231411,0.07627 0.961708,0.241805 1.622884,0.367849 0.661174,0.126044 1.512372,0.300067 1.891548,0.386718 0.760991,0.173906 1.341805,0.206051 1.24715,0.06902 -0.0762,-0.110313 -0.308397,-1.242891 -0.444901,-2.170109 -0.251443,-1.707935 -0.367033,-4.951156 -0.294604,-8.265957 0.08364,-3.827859 0.0831,-3.825174 0.843533,-4.148025 0.454384,-0.192912 0.773434,-0.127712 1.265282,0.258572 l 0.300534,0.23603 -0.04354,3.943054 c -0.05309,4.807512 0.109209,7.03219 0.702034,9.623182 0.47368,2.070255 1.342506,2.902388 2.229026,2.134886 0.521397,-0.451397 1.139637,-1.411228 1.139637,-1.76931 0,-0.07755 0.04779,-0.186972 0.1062,-0.243169 0.05841,-0.0562 0.171566,-0.416772 0.251457,-0.801277 0.07989,-0.384505 0.19773,-0.941097 0.261866,-1.236871 0.179577,-0.828158 0.472465,-2.862435 0.712322,-4.947481 0.06805,-0.591547 0.153721,-2.291448 0.19038,-3.777557 0.06399,-2.594001 0.07734,-2.71315 0.33407,-2.980459 0.420972,-0.438322 0.836991,-0.534267 1.355294,-0.312562 0.807679,0.345486 0.826898,0.434848 0.918026,4.268497 0.04492,1.889826 0.140403,4.156071 0.212178,5.036099 0.210456,2.580401 0.01669,7.032474 -0.380245,8.736485 -0.274951,1.18036 -0.971733,3.264935 -1.348144,4.033273 -0.13041,0.266196 -0.311959,0.636505 -0.403441,0.822909 -0.09148,0.186404 -0.166332,0.364084 -0.166332,0.394845 0,0.03076 -0.261253,0.45904 -0.580561,0.951731 -1.510762,2.331098 -2.815745,3.718864 -4.888996,5.199137 -0.330498,0.235971 -0.672464,0.489538 -0.759923,0.563482 -0.08746,0.07394 -0.205382,0.134442 -0.262054,0.134442 -0.05667,0 -0.174525,0.06231 -0.261894,0.138468 -0.142764,0.124442 -0.694502,0.447075 -1.359291,0.794852 -0.298759,0.156293 -1.775805,0.806713 -2.345863,1.033006 -0.921682,0.365874 -2.291398,0.749337 -3.426087,0.95916 -0.80566,0.148979 -5.150458,0.200726 -5.830359,0.06944 z M 8.726621,41.395025 C 8.660504,41.373504 8.4668848,41.328615 8.2963572,41.295273 7.8395627,41.205959 7.0400412,40.599068 6.6511279,40.046432 5.5268613,38.44888 5.0831486,36.282371 5.03111,32.136395 L 5,29.657833 5.3058931,29.384086 c 0.5576061,-0.499008 1.2486818,-0.488099 1.7863007,0.0282 0.2067948,0.198593 0.2517636,0.378147 0.2508141,1.001463 -0.0026,1.707654 0.2724669,5.131737 0.4967068,6.183071 0.2416244,1.132841 0.7262314,2.2147 1.0786738,2.408083 0.5092828,0.279442 1.4497545,-0.358817 1.6734505,-1.135701 0.07251,-0.25181 0.178501,-0.603036 0.235543,-0.7805 0.127346,-0.396188 0.396681,-3.037965 0.32091,-3.147654 -0.03009,-0.04356 -0.09064,-2.571714 -0.134555,-5.618114 -0.04391,-3.046399 -0.126707,-6.941433 -0.183988,-8.655631 -0.10096,-3.021341 -0.0967,-3.128583 0.139299,-3.504262 0.465092,-0.740374 1.498492,-0.76914 1.981781,-0.05517 0.259994,0.384095 0.322886,2.168854 0.471615,13.383426 0.08881,6.696731 0.07257,7.056905 -0.39122,8.672941 -0.326744,1.138521 -0.953011,1.990912 -1.990861,2.709694 -0.461183,0.319402 -1.922372,0.648486 -2.313742,0.521093 z m 10.911238,-5.497824 c -0.435412,-0.170417 -0.773034,-0.394152 -1.227066,-0.813148 -1.023285,-0.944319 -1.778613,-2.643769 -2.216211,-4.986361 -0.170316,-0.91175 -0.255534,-1.536686 -0.552797,-4.053878 -0.0677,-0.573303 -0.123097,-2.926167 -0.123097,-5.228589 l 0,-4.186221 0.316927,-0.283552 c 0.45214,-0.404525 1.246666,-0.400591 1.702114,0.0084 l 0.325124,0.291978 -0.03261,2.262428 c -0.03467,2.405317 0.257715,8.390046 0.462585,9.468541 0.334703,1.761965 0.491826,2.408619 0.817148,3.363049 0.245181,0.719312 0.784371,1.552445 1.179006,1.821748 0.344897,0.235363 0.451654,0.259696 0.698278,0.159161 0.280907,-0.114512 0.782533,-0.912373 0.782533,-1.24466 0,-0.08848 0.04786,-0.187348 0.106353,-0.219692 0.0585,-0.03234 0.136311,-0.192499 0.172926,-0.355898 0.03661,-0.163399 0.124644,-0.514886 0.195624,-0.781082 0.572968,-2.148792 0.963477,-6.397576 0.965958,-10.50975 0.0014,-2.388274 0.03184,-2.87619 0.198712,-3.189269 0.292591,-0.548956 0.947359,-0.756007 1.521457,-0.481116 0.65135,0.311882 0.626732,0.122966 0.612413,4.699702 -0.0078,2.48617 -0.07191,4.696019 -0.154696,5.330837 -0.365244,2.800684 -0.411248,3.082887 -0.737802,4.526034 -0.497995,2.200803 -1.61243,3.969422 -2.796441,4.437979 -0.444355,0.175848 -1.727707,0.154615 -2.216439,-0.03667 z M 30.064532,11.863889 C 29.146015,11.363107 26.205875,10.316327 24.65492,9.9379021 24.357392,9.8653065 23.843479,9.7399867 23.512891,9.6594127 20.183251,8.8478827 17.211228,9.340555 15.247496,11.029569 l -0.339015,0.291589 0.05962,-0.345366 c 0.03279,-0.189951 0.09377,-0.630331 0.135503,-0.9786233 0.09251,-0.7720072 0.417014,-1.084345 1.677324,-1.6144225 1.311443,-0.551585 1.766853,-0.6269685 3.436826,-0.568899 1.691665,0.058823 2.223575,0.1456517 3.415347,0.5575198 0.462824,0.1599478 0.937966,0.316242 1.055874,0.3473208 0.117908,0.031079 0.710393,0.292437 1.316635,0.5807956 0.60624,0.2883586 1.145399,0.5242889 1.198131,0.5242889 0.05273,0 0.09587,0.048399 0.09587,0.107554 0,0.059155 0.05783,0.1075537 0.128499,0.1075537 0.138155,0 2.028472,1.176336 2.435472,1.515584 0.235389,0.196204 0.383063,0.249156 0.600571,0.215351 0.0545,-0.0085 0.06483,0.0342 0.02296,0.09482 -0.09061,0.131174 -0.180922,0.131015 -0.422587,-7.53e-4 z m 0.08682,-0.428037 c -0.11387,-0.118986 -0.207037,-0.26015 -0.207037,-0.313699 0,-0.05355 -0.04057,-0.113494 -0.09016,-0.133213 -0.04959,-0.01972 -0.321665,-0.313962 -0.604614,-0.653874 C 28.96659,9.9951531 28.547345,9.5490731 28.317885,9.3437763 28.088424,9.1384805 27.900684,8.9510473 27.900684,8.9272575 27.900684,8.8726792 26.704073,7.7988133 26.322769,7.5112 26.165802,7.3928003 25.766966,7.1024047 25.436466,6.8658763 25.105968,6.6293469 24.764004,6.3753238 24.676545,6.3013805 24.589085,6.2274371 24.471163,6.1669381 24.41449,6.1669381 c -0.05667,0 -0.174524,-0.060584 -0.261893,-0.1346318 -0.204546,-0.1733576 -1.153538,-0.7257998 -1.246786,-0.7257998 -0.0392,0 -0.152415,-0.072599 -0.251591,-0.161331 -0.255069,-0.2282079 -0.172458,-0.2076028 0.832089,0.2075415 0.77578,0.3206033 1.546752,0.7176225 1.949996,1.0041699 0.06612,0.046983 0.336599,0.2273045 0.601069,0.4007138 1.110518,0.7281531 2.765776,2.3986703 3.571022,3.6039413 0.859135,1.285931 0.986328,1.5376 0.542956,1.07431 z m 5.142467,-0.497085 c -0.464354,-0.208455 -0.941483,-0.819772 -1.134386,-1.453425 -0.12836,-0.4216405 -0.122871,-0.5898484 0.03511,-1.0760719 0.33906,-1.0434959 1.062316,-1.5973192 2.085065,-1.5966061 0.776957,5.378e-4 1.820964,0.5917608 1.835228,1.0392863 0.0022,0.069013 0.06672,0.1441857 0.14339,0.1670496 0.221031,0.065919 0.186825,1.5777476 -0.04448,1.9661034 -0.277349,0.4656537 -0.582311,0.7501407 -1.020595,0.9520667 -0.501063,0.230849 -0.61514,0.224952 -0.304924,-0.01576 0.136808,-0.106157 0.281575,-0.360254 0.321706,-0.564659 0.216323,-1.1018403 -0.840963,-1.7898619 -1.612254,-1.0491626 -0.342142,0.328572 -0.341355,1.2423286 0.0014,1.5714456 0.283031,0.271807 0.202363,0.287594 -0.305217,0.05974 z"
     id="path2991"
     inkscape:connector-curvature="0" />
</svg>
